<?xml version="1.0" encoding="utf-8"?>
<!-- Generator: Adobe Illustrator 18.1.1, SVG Export Plug-In . SVG Version: 6.00 Build 0)  -->
<svg version="1.1" id="Layer_1" xmlns="http://www.w3.org/2000/svg" xmlns:xlink="http://www.w3.org/1999/xlink" x="0px" y="0px"
	 viewBox="0 0 32 32" enable-background="new 0 0 32 32" xml:space="preserve">
<path fill="#FFFFFF" d="M7.1,22.6c-1.6,0-3-1.3-3-3V14c0-1.6,1.3-3,3-3s3,1.3,3,3v5.7C10.1,21.3,8.8,22.6,7.1,22.6z M7.1,13
	c-0.5,0-1,0.4-1,1v5.7c0,0.5,0.4,1,1,1s1-0.4,1-1V14C8.1,13.4,7.7,13,7.1,13z"/>
<path fill="#FFFFFF" d="M26.6,22.4c-1.6,0-3-1.3-3-3v-5.7c0-1.6,1.3-3,3-3s3,1.3,3,3v5.7C29.6,21.1,28.2,22.4,26.6,22.4z M26.6,12.9
	c-0.5,0-1,0.4-1,1v5.7c0,0.5,0.4,1,1,1s1-0.4,1-1v-5.7C27.6,13.3,27.1,12.9,26.6,12.9z"/>
<path fill="#FFFFFF" d="M19.8,31c-1.4,0-2.6-1-2.9-2.3C16.6,30,15.4,31,14,31c-1.6,0-3-1.3-3-3v-2.5c-1.2-0.1-2.2-1.1-2.2-2.3V11
	h15.9v12.3c0,1.2-0.9,2.2-2.1,2.3v2.5C22.7,29.7,21.4,31,19.8,31z M15,23.6h3.8v4.5c0,0.5,0.4,1,1,1s1-0.4,1-1v-4.5h1.8
	c0.2,0,0.3-0.1,0.3-0.3V13H10.9v10.3c0,0.2,0.1,0.3,0.3,0.3h1.9v4.5c0,0.5,0.4,1,1,1s1-0.4,1-1V23.6z"/>
<path fill="#FFFFFF" d="M10.8,11.3l-2-0.3C9.4,7,12.8,4,16.8,4c4,0,7.4,3.1,7.9,7.1l-0.3,0l-1.7,0.1v-0.1c-0.5-2.9-3-5.2-6-5.2
	C13.8,6,11.2,8.3,10.8,11.3z"/>
<path fill="#FFFFFF" d="M13.3,6.7c-0.3,0-0.6-0.2-0.8-0.4l-1.7-2.5c-0.3-0.5-0.2-1.1,0.3-1.4c0.5-0.3,1.1-0.2,1.4,0.3l1.7,2.5
	c0.3,0.5,0.2,1.1-0.3,1.4C13.7,6.7,13.5,6.7,13.3,6.7z"/>
<path fill="#FFFFFF" d="M20.1,6.7c-0.2,0-0.4-0.1-0.6-0.2c-0.5-0.3-0.6-0.9-0.3-1.4l1.7-2.5c0.3-0.5,0.9-0.6,1.4-0.3
	c0.5,0.3,0.6,0.9,0.3,1.4L21,6.3C20.8,6.6,20.4,6.7,20.1,6.7z"/>
</svg>
