<?xml version="1.0" encoding="utf-8"?>
<!-- Generator: Adobe Illustrator 18.1.1, SVG Export Plug-In . SVG Version: 6.00 Build 0)  -->
<svg version="1.1" id="Layer_1" xmlns="http://www.w3.org/2000/svg" xmlns:xlink="http://www.w3.org/1999/xlink" x="0px" y="0px"
	 viewBox="0 0 32 32" enable-background="new 0 0 32 32" xml:space="preserve">
<path fill="#7A7C7F" d="M7.2,21.9c-1.6,0-3-1.3-3-3v-5.7c0-1.6,1.3-3,3-3s3,1.3,3,3V19C10.1,20.6,8.8,21.9,7.2,21.9z M7.2,12.3
	c-0.5,0-1,0.4-1,1V19c0,0.5,0.4,1,1,1s1-0.4,1-1v-5.7C8.1,12.8,7.7,12.3,7.2,12.3z"/>
<path fill="#7A7C7F" d="M26.6,21.8c-1.6,0-3-1.3-3-3v-5.7c0-1.6,1.3-3,3-3s3,1.3,3,3v5.7C29.6,20.5,28.3,21.8,26.6,21.8z M26.6,12.2
	c-0.5,0-1,0.4-1,1v5.7c0,0.5,0.4,1,1,1s1-0.4,1-1v-5.7C27.6,12.6,27.2,12.2,26.6,12.2z"/>
<path fill="#7A7C7F" d="M19.8,30.3c-1.4,0-2.6-1-2.9-2.3c-0.3,1.3-1.5,2.3-2.9,2.3c-1.6,0-3-1.3-3-3v-2.5c-1.2-0.1-2.2-1.1-2.2-2.3
	V10.3h15.9v12.3c0,1.2-0.9,2.2-2.1,2.3v2.5C22.8,29,21.4,30.3,19.8,30.3z M15,22.9h3.8v4.5c0,0.5,0.4,1,1,1s1-0.4,1-1v-4.5h1.8
	c0.2,0,0.3-0.1,0.3-0.3V12.3H10.9v10.3c0,0.2,0.1,0.3,0.3,0.3h1.9v4.5c0,0.5,0.4,1,1,1s1-0.4,1-1V22.9z"/>
<path fill="#7A7C7F" d="M10.9,10.6l-2-0.3c0.5-4.1,3.9-7.1,8-7.1c4,0,7.4,3.1,7.9,7.1l-0.3,0l-1.7,0.1v-0.1c-0.5-2.9-3-5.2-6-5.2
	C13.8,5.3,11.3,7.6,10.9,10.6z"/>
<path fill="#7A7C7F" d="M13.3,6.1c-0.3,0-0.6-0.2-0.8-0.4l-1.7-2.5c-0.3-0.5-0.2-1.1,0.3-1.4c0.5-0.3,1.1-0.2,1.4,0.3l1.7,2.5
	c0.3,0.5,0.2,1.1-0.3,1.4C13.7,6,13.5,6.1,13.3,6.1z"/>
<path fill="#7A7C7F" d="M20.2,6.1c-0.2,0-0.4-0.1-0.6-0.2C19.1,5.6,19,5,19.3,4.5L21,2c0.3-0.5,0.9-0.6,1.4-0.3
	c0.5,0.3,0.6,0.9,0.3,1.4L21,5.6C20.8,5.9,20.5,6.1,20.2,6.1z"/>
</svg>
