<svg xmlns="http://www.w3.org/2000/svg" viewBox="0 0 317.8 175.29"><defs><style>.a,.b,.c,.d,.e,.f{fill:#fff;}.a{opacity:0.05;}.b{opacity:0.1;}.c{opacity:0.2;}.d{opacity:0.15;}.e{opacity:0.4;}.f{opacity:0.3;}</style></defs><title>white triangle</title><polygon class="a" points="215.15 147.6 317.8 45.14 112.68 45.14 215.15 147.6"/><polygon class="b" points="13.06 89.86 13.06 63.07 40.03 63.07 26.59 76.51 39.99 89.91 13.06 89.86"/><polygon class="c" points="130.18 125.94 130.18 99.07 157.24 99.07 143.76 112.55 157.2 125.99 130.18 125.94"/><polygon class="b" points="266.77 95.77 266.77 45.14 215.8 45.14 241.2 70.54 215.89 95.85 266.77 95.77"/><polygon class="b" points="166.38 135.07 166.38 125.99 157.24 125.99 161.8 130.54 157.26 135.09 166.38 135.07"/><polygon class="b" points="130.18 125.57 130.18 63.07 67.27 63.07 98.62 94.42 67.37 125.67 130.18 125.57"/><polygon class="c" points="98.89 94.44 3.81 0 193.33 0 98.89 94.44"/><polygon class="b" points="130.12 63.02 66.55 0 193.33 0 130.12 63.02"/><polygon class="b" points="215.26 147.68 190.75 123.34 239.58 123.34 215.26 147.68"/><polygon class="d" points="98.83 94.37 67.29 63.04 130.16 63.04 98.83 94.37"/><polygon class="c" points="98.9 157.02 67.34 125.67 130.25 125.67 98.9 157.02"/><polygon class="b" points="53.76 103.69 40.16 90.18 67.27 90.18 53.76 103.69"/><polygon class="b" points="266.82 95.85 252.19 81.33 281.35 81.33 266.82 95.85"/><polygon class="c" points="67.29 111.07 67.34 125.67 52.74 111.07 67.29 111.07"/><polygon class="b" points="117.15 156.8 117.22 175.29 98.73 156.8 117.15 156.8"/><polygon class="b" points="225.12 147.68 225.16 157.67 215.17 147.68 225.12 147.68"/><polygon class="b" points="252.16 70.58 252.19 81.33 241.45 70.58 252.16 70.58"/><polygon class="c" points="84.86 125.67 84.92 143.25 67.34 125.67 84.86 125.67"/><polygon class="c" points="98.85 63.04 98.96 94.71 67.29 63.04 98.85 63.04"/><polygon class="e" points="26.55 49.77 26.55 76.4 0 49.68 26.55 49.77"/><polygon class="f" points="215.74 27.11 215.8 45.14 197.78 27.11 215.74 27.11"/><polygon class="c" points="53.78 76.67 67.29 63.07 67.29 90.18 53.78 76.67"/><polygon class="c" points="227.32 135.51 239.58 123.34 215.8 123.34 227.32 135.51"/><polygon class="b" points="138.9 71.81 147.7 63.07 130.15 63.07 138.9 71.81"/><polygon class="f" points="138.93 71.84 130.18 63.04 130.18 80.59 138.93 71.84"/></svg>