<svg xmlns="http://www.w3.org/2000/svg" viewBox="0 0 83.05 65.38"><defs><style>.a,.b{fill:#fff;}.b{font-size:25px;font-family:Gotham;font-weight:700;}</style></defs><title>browser</title><path class="a" d="M-117.13,84.08a1.51,1.51,0,0,1-1.51-1.51V20.72a1.51,1.51,0,0,1,1.51-1.51H-37.6a1.51,1.51,0,0,1,1.51,1.51V82.57a1.51,1.51,0,0,1-1.51,1.51h-79.52Zm78-3V22.23h-76.5V81.06h76.5Z" transform="translate(118.89 -18.96)"/><path class="a" d="M-37.61,19.46a1.26,1.26,0,0,1,1.26,1.26V82.57a1.26,1.26,0,0,1-1.26,1.26h-79.52a1.26,1.26,0,0,1-1.26-1.26V20.72a1.26,1.26,0,0,1,1.26-1.26h79.52m-78.26,61.85h77V22h-77V81.31M-37.61,19h-79.52a1.76,1.76,0,0,0-1.76,1.76V82.57a1.76,1.76,0,0,0,1.76,1.76h79.52a1.76,1.76,0,0,0,1.76-1.76V20.72A1.76,1.76,0,0,0-37.61,19h0Zm-77.76,3.52h76V80.81h-76V22.48h0Z" transform="translate(118.89 -18.96)"/><path class="a" d="M-110.81,34.51A1.52,1.52,0,0,1-112.33,33a1.52,1.52,0,0,1,1.52-1.52h66.88A1.52,1.52,0,0,1-42.4,33a1.52,1.52,0,0,1-1.52,1.52h-66.88Z" transform="translate(118.89 -18.96)"/><path class="a" d="M-43.92,31.72A1.27,1.27,0,0,1-42.65,33a1.27,1.27,0,0,1-1.27,1.27h-66.88A1.27,1.27,0,0,1-112.08,33a1.27,1.27,0,0,1,1.27-1.27h66.88m0-.5h-66.88A1.77,1.77,0,0,0-112.58,33a1.77,1.77,0,0,0,1.77,1.77h66.88A1.77,1.77,0,0,0-42.15,33a1.77,1.77,0,0,0-1.77-1.77h0Z" transform="translate(118.89 -18.96)"/><circle class="a" cx="8.7" cy="8.07" r="2.14"/><path class="a" d="M-110.18,25.14A1.89,1.89,0,0,1-108.29,27a1.89,1.89,0,0,1-1.89,1.89A1.89,1.89,0,0,1-112.08,27a1.89,1.89,0,0,1,1.89-1.89m0-.5A2.4,2.4,0,0,0-112.58,27a2.4,2.4,0,0,0,2.39,2.39A2.4,2.4,0,0,0-107.79,27a2.4,2.4,0,0,0-2.39-2.39h0Z" transform="translate(118.89 -18.96)"/><circle class="a" cx="13.75" cy="8.07" r="2.14"/><path class="a" d="M-105.14,25.14A1.89,1.89,0,0,1-103.24,27a1.89,1.89,0,0,1-1.89,1.89A1.89,1.89,0,0,1-107,27a1.89,1.89,0,0,1,1.89-1.89m0-.5A2.4,2.4,0,0,0-107.53,27a2.4,2.4,0,0,0,2.39,2.39A2.4,2.4,0,0,0-102.74,27a2.4,2.4,0,0,0-2.39-2.39h0Z" transform="translate(118.89 -18.96)"/><circle class="a" cx="18.8" cy="8.07" r="2.14"/><path class="a" d="M-100.09,25.14A1.89,1.89,0,0,1-98.19,27a1.89,1.89,0,0,1-1.89,1.89A1.89,1.89,0,0,1-102,27a1.89,1.89,0,0,1,1.89-1.89m0-.5A2.4,2.4,0,0,0-102.48,27a2.4,2.4,0,0,0,2.39,2.39A2.4,2.4,0,0,0-97.69,27a2.4,2.4,0,0,0-2.39-2.39h0Z" transform="translate(118.89 -18.96)"/><text class="b" transform="translate(18.8 45.8)">&lt;/&gt;</text></svg>