<svg xmlns="http://www.w3.org/2000/svg" viewBox="0 0 91.06 91.07"><defs><style>.a,.c{fill:#fff;}.b{fill:none;stroke-width:3px;}.b,.c{stroke:#fff;}</style></defs><title>compiler</title><path class="a" d="M12.67,39.13A9.7,9.7,0,0,1,10.86,39a3.37,3.37,0,0,1-1.22-.48,2.38,2.38,0,0,1-1-1.23,8,8,0,0,1-.26-2.44v-2.7A3.33,3.33,0,0,0,7.87,30,2.5,2.5,0,0,0,6,29.36l-0.5,0H5.22v-1.9H5.47l0.5,0a2.49,2.49,0,0,0,1.9-.6,3.38,3.38,0,0,0,.54-2.21V22a8,8,0,0,1,.26-2.47,2.33,2.33,0,0,1,1-1.21,3.37,3.37,0,0,1,1.21-.48,9.69,9.69,0,0,1,1.82-.14h0.64v1.91H13.06l-0.5,0a2.23,2.23,0,0,0-1.63.44,3.11,3.11,0,0,0-.41,2v2.68A5.34,5.34,0,0,1,10,27.46a2.64,2.64,0,0,1-1.18,1,2.6,2.6,0,0,1,1.18,1,5.33,5.33,0,0,1,.52,2.74v2.68a3,3,0,0,0,.41,2,2.41,2.41,0,0,0,1.69.44h0.68v1.88H12.67Z" transform="translate(-4.97 -17.46)"/><path class="a" d="M13.06,18v1.4h-0.5a2.43,2.43,0,0,0-1.81.52A3.43,3.43,0,0,0,10.27,22v2.68a5.18,5.18,0,0,1-.48,2.6,2.79,2.79,0,0,1-1.71,1.11,2.75,2.75,0,0,1,1.71,1.1,5.17,5.17,0,0,1,.48,2.6v2.68A3.35,3.35,0,0,0,10.75,37a2.57,2.57,0,0,0,1.87.51h0.43v1.38H12.67a9.42,9.42,0,0,1-1.76-.13,3.12,3.12,0,0,1-1.13-.44,2.13,2.13,0,0,1-.86-1.11,7.85,7.85,0,0,1-.25-2.36v-2.7a3.53,3.53,0,0,0-.61-2.36A2.71,2.71,0,0,0,6,29.11H5.47v-1.4H6a2.7,2.7,0,0,0,2.09-.68,3.58,3.58,0,0,0,.61-2.37V22a7.88,7.88,0,0,1,.25-2.38,2.08,2.08,0,0,1,.86-1.08,3.12,3.12,0,0,1,1.13-.44A9.4,9.4,0,0,1,12.67,18h0.39m0.5-.5H12.67a9.78,9.78,0,0,0-1.87.14,3.62,3.62,0,0,0-1.31.52,2.56,2.56,0,0,0-1.05,1.33A8.21,8.21,0,0,0,8.17,22v2.7a3.21,3.21,0,0,1-.48,2A2.27,2.27,0,0,1,6,27.25H5v2.4H6a2.28,2.28,0,0,1,1.72.51,3.17,3.17,0,0,1,.48,2v2.7a8.19,8.19,0,0,0,.28,2.52A2.62,2.62,0,0,0,9.5,38.72a3.62,3.62,0,0,0,1.31.51,9.8,9.8,0,0,0,1.86.14h0.89V37H12.63a2.08,2.08,0,0,1-1.51-.36,2.84,2.84,0,0,1-.35-1.82V32.14a5.56,5.56,0,0,0-.56-2.87,2.65,2.65,0,0,0-.86-0.84,2.67,2.67,0,0,0,.86-0.84,5.56,5.56,0,0,0,.56-2.87V22a2.91,2.91,0,0,1,.34-1.84,1.94,1.94,0,0,1,1.45-.36h1v-2.4h0Z" transform="translate(-4.97 -17.46)"/><path class="a" d="M18.11,34.83a1.46,1.46,0,0,1,0-2.91,1.43,1.43,0,0,1,1,.42,1.44,1.44,0,0,1,0,2.06A1.42,1.42,0,0,1,18.11,34.83Z" transform="translate(-4.97 -17.46)"/><path class="a" d="M18.11,32.17a1.18,1.18,0,0,1,.86.35,1.2,1.2,0,0,1,0,1.7,1.17,1.17,0,0,1-.86.36,1.21,1.21,0,0,1,0-2.41m0-.5a1.7,1.7,0,1,0,1.21.49,1.67,1.67,0,0,0-1.21-.49h0Z" transform="translate(-4.97 -17.46)"/><path class="a" d="M24.57,34.83a1.46,1.46,0,0,1,0-2.91,1.43,1.43,0,0,1,1,.42,1.44,1.44,0,0,1,0,2.06A1.42,1.42,0,0,1,24.57,34.83Z" transform="translate(-4.97 -17.46)"/><path class="a" d="M24.57,32.17a1.18,1.18,0,0,1,.86.35,1.2,1.2,0,0,1,0,1.7,1.17,1.17,0,0,1-.86.36,1.21,1.21,0,0,1,0-2.41m0-.5a1.7,1.7,0,1,0,1.21.49,1.67,1.67,0,0,0-1.21-.49h0Z" transform="translate(-4.97 -17.46)"/><path class="a" d="M31,34.83a1.46,1.46,0,0,1,0-2.91,1.43,1.43,0,0,1,1,.42,1.45,1.45,0,0,1,0,2.06A1.42,1.42,0,0,1,31,34.83Z" transform="translate(-4.97 -17.46)"/><path class="a" d="M31,32.17a1.18,1.18,0,0,1,.86.35,1.19,1.19,0,0,1,0,1.7,1.17,1.17,0,0,1-.86.36,1.21,1.21,0,0,1,0-2.41m0-.5a1.7,1.7,0,1,0,1.21.49A1.67,1.67,0,0,0,31,31.67h0Z" transform="translate(-4.97 -17.46)"/><path class="a" d="M35.86,39.13V37.25h0.25l0.5,0a2.21,2.21,0,0,0,1.62-.44,3.13,3.13,0,0,0,.42-2V32.14a5.34,5.34,0,0,1,.52-2.74,2.6,2.6,0,0,1,1.18-1,2.64,2.64,0,0,1-1.18-1,5.34,5.34,0,0,1-.52-2.74V22a3.05,3.05,0,0,0-.42-2,2.34,2.34,0,0,0-1.69-.45H35.86V17.71H36.5a9.5,9.5,0,0,1,1.83.14,3.59,3.59,0,0,1,1.22.47,2.32,2.32,0,0,1,.94,1.21A8.18,8.18,0,0,1,40.75,22v2.7a3.35,3.35,0,0,0,.55,2.2,2.51,2.51,0,0,0,1.92.6H44v1.9H43.72l-0.5,0a2.51,2.51,0,0,0-1.92.6,3.35,3.35,0,0,0-.55,2.2v2.68a8.31,8.31,0,0,1-.26,2.48,2.37,2.37,0,0,1-.94,1.23,3.22,3.22,0,0,1-1.17.45,9.79,9.79,0,0,1-1.82.13h-0.7Z" transform="translate(-4.97 -17.46)"/><path class="a" d="M36.5,18a9.21,9.21,0,0,1,1.78.14,3.33,3.33,0,0,1,1.14.44,2.06,2.06,0,0,1,.84,1.08A8.06,8.06,0,0,1,40.5,22h0v2.7a3.56,3.56,0,0,0,.61,2.37,2.72,2.72,0,0,0,2.11.69h0.5v1.4h-0.5a2.72,2.72,0,0,0-2.11.69,3.56,3.56,0,0,0-.61,2.37v2.68a8.18,8.18,0,0,1-.24,2.39,2.12,2.12,0,0,1-.84,1.1,3,3,0,0,1-1.08.41,9.67,9.67,0,0,1-1.78.13H36.11V37.5h0.5A2.42,2.42,0,0,0,38.41,37a3.45,3.45,0,0,0,.48-2.2V32.14a5.17,5.17,0,0,1,.48-2.6,2.75,2.75,0,0,1,1.71-1.1,2.79,2.79,0,0,1-1.71-1.11,5.17,5.17,0,0,1-.48-2.6V22a3.38,3.38,0,0,0-.49-2.17,2.53,2.53,0,0,0-1.87-.53H36.11V18H36.5m0-.5H35.61v2.38h0.93a2,2,0,0,1,1.5.37A2.86,2.86,0,0,1,38.39,22v2.68A5.56,5.56,0,0,0,39,27.59a2.67,2.67,0,0,0,.86.84,2.65,2.65,0,0,0-.86.84,5.56,5.56,0,0,0-.56,2.87V34.8A2.93,2.93,0,0,1,38,36.66,2.08,2.08,0,0,1,36.6,37h-1v2.38h1a10,10,0,0,0,1.87-.14,3.46,3.46,0,0,0,1.26-.49,2.62,2.62,0,0,0,1-1.35A8.5,8.5,0,0,0,41,34.84V32.17a3.19,3.19,0,0,1,.49-2,2.29,2.29,0,0,1,1.73-.52h1v-2.4h-1a2.29,2.29,0,0,1-1.73-.52,3.19,3.19,0,0,1-.49-2V22a8.39,8.39,0,0,0-.27-2.54,2.56,2.56,0,0,0-1-1.34,3.84,3.84,0,0,0-1.31-.51,9.6,9.6,0,0,0-1.88-.15h0Z" transform="translate(-4.97 -17.46)"/><rect class="b" x="23.44" y="67.39" width="22.18" height="22.18"/><rect class="b" x="45.38" y="67.39" width="22.18" height="22.18"/><rect class="b" x="67.32" y="67.39" width="22.18" height="22.18"/><rect class="b" x="20.82" y="55.94" width="22.18" height="22.18" transform="translate(-28.8 0.53) rotate(-23.21)"/><rect class="b" x="67.32" y="23.39" width="22.18" height="22.18"/><rect class="b" x="45.44" y="45.39" width="22.18" height="22.18"/><rect class="b" x="67.38" y="45.39" width="22.18" height="22.18"/><path class="c" d="M23.6,45.12l-2.48-1,4.29,5.43-0.77-6.87Z" transform="translate(-4.97 -17.46)"/></svg>