<?xml version="1.0" encoding="utf-8"?>
<!-- Generator: Adobe Illustrator 18.1.1, SVG Export Plug-In . SVG Version: 6.00 Build 0)  -->
<svg version="1.1" id="Layer_1" xmlns="http://www.w3.org/2000/svg" xmlns:xlink="http://www.w3.org/1999/xlink" x="0px" y="0px"
	 viewBox="0 0 32 32" enable-background="new 0 0 32 32" xml:space="preserve">
<path fill="#FFFFFF" d="M7.9,18.2c-1.5-1.8-2.3-4-2.3-6.2C5.6,6.5,10.2,2,16,2s10.4,4.4,10.4,9.9c0,2.2-0.8,4.3-2.2,6.1l-1.5-1.3
	c1.1-1.4,1.7-3.1,1.7-4.8C24.3,7.6,20.6,4,16,4s-8.4,3.6-8.4,7.9c0,1.8,0.6,3.5,1.8,5L7.9,18.2z"/>
<path fill="#FFFFFF" d="M16,31.3c-2.7,0-4.8-2.1-4.8-4.6l0-0.5c0,0,0.5-3.4-0.8-5.3c-0.5-0.7-0.9-1.1-1.3-1.5
	c-0.4-0.4-0.8-0.8-1.4-1.6l1.6-1.2c0.5,0.7,0.9,1,1.2,1.4c0.4,0.4,0.9,0.8,1.5,1.7c1.7,2.4,1.3,6.1,1.2,6.7v0.3
	c0,1.4,1.3,2.6,2.8,2.6c1.6,0,2.8-1.2,2.8-2.6v-0.3c-0.1-0.7-0.6-3.8,1-6.2c0.6-1,1.1-1.5,1.7-2.1c0.4-0.4,0.8-0.8,1.2-1.5l1.6,1.2
	c-0.5,0.7-1,1.2-1.4,1.6c-0.5,0.6-0.9,1-1.5,1.9c-1.3,1.9-0.7,4.8-0.7,4.8l0,0.2v0.4C20.8,29.3,18.6,31.3,16,31.3z"/>
<rect x="12.2" y="22.8" fill="#FFFFFF" width="7.4" height="2"/>
</svg>
