<?xml version="1.0" encoding="utf-8"?>
<!-- Generator: Adobe Illustrator 18.1.1, SVG Export Plug-In . SVG Version: 6.00 Build 0)  -->
<svg version="1.1" id="Layer_1" xmlns="http://www.w3.org/2000/svg" xmlns:xlink="http://www.w3.org/1999/xlink" x="0px" y="0px"
	 viewBox="0 0 32 32" enable-background="new 0 0 32 32" xml:space="preserve">
<path fill="#7A7C7F" d="M7.9,17.5c-1.5-1.8-2.3-4-2.3-6.2c0-5.5,4.7-9.9,10.4-9.9s10.4,4.4,10.4,9.9c0,2.2-0.8,4.3-2.2,6.1l-1.5-1.3
	c1.1-1.4,1.7-3.1,1.7-4.8c0-4.4-3.8-7.9-8.4-7.9s-8.4,3.6-8.4,7.9c0,1.8,0.6,3.5,1.8,5L7.9,17.5z"/>
<path fill="#7A7C7F" d="M16,30.7c-2.7,0-4.8-2.1-4.8-4.6l0-0.5c0,0,0.5-3.4-0.8-5.3c-0.5-0.7-0.9-1.1-1.3-1.5
	c-0.4-0.4-0.8-0.8-1.4-1.6L9.3,16c0.5,0.7,0.9,1,1.2,1.4c0.4,0.4,0.9,0.8,1.5,1.7c1.7,2.4,1.3,6.1,1.2,6.7V26c0,1.4,1.3,2.6,2.8,2.6
	c1.6,0,2.8-1.2,2.8-2.6v-0.3c-0.1-0.7-0.6-3.8,1-6.2c0.6-1,1.1-1.5,1.7-2.1c0.4-0.4,0.8-0.8,1.2-1.5l1.6,1.2c-0.5,0.7-1,1.2-1.4,1.6
	c-0.5,0.6-0.9,1-1.5,1.9c-1.3,1.9-0.7,4.8-0.7,4.8l0,0.2V26C20.8,28.6,18.7,30.7,16,30.7z"/>
<rect x="12.2" y="22.1" fill="#7A7C7F" width="7.4" height="2"/>
</svg>
