<?xml version="1.0" encoding="utf-8"?>
<!-- Generator: Adobe Illustrator 18.1.1, SVG Export Plug-In . SVG Version: 6.00 Build 0)  -->
<svg version="1.1" id="Layer_1" xmlns="http://www.w3.org/2000/svg" xmlns:xlink="http://www.w3.org/1999/xlink" x="0px" y="0px"
	 viewBox="0 0 32 32" enable-background="new 0 0 32 32" xml:space="preserve">
<path fill="#7A7C7F" d="M8.3,25.4c-0.2,0-0.5-0.1-0.7-0.2c-2.8-2.4-4.3-5.8-4.3-9.5c0-3.4,1.3-6.5,3.7-8.9c0.4-0.4,1-0.4,1.4,0
	s0.4,1,0,1.4c-2,2-3.1,4.6-3.1,7.5c0,3.1,1.3,6,3.6,8c0.4,0.4,0.5,1,0.1,1.4C8.8,25.3,8.6,25.4,8.3,25.4z"/>
<path fill="#7A7C7F" d="M11.9,21.8c-0.2,0-0.4-0.1-0.6-0.2c-1.8-1.4-2.8-3.6-2.8-5.9c0-2.1,0.8-4,2.3-5.4c0.4-0.4,1-0.4,1.4,0
	s0.4,1,0,1.4c-1.1,1.1-1.7,2.5-1.7,4c0,1.7,0.8,3.3,2.1,4.3c0.4,0.3,0.5,1,0.1,1.4C12.5,21.7,12.2,21.8,11.9,21.8z"/>
<path fill="#7A7C7F" d="M16,18.5c-1.5,0-2.8-1.2-2.8-2.8S14.5,13,16,13c0.6,0,1,0.4,1,1s-0.4,1-1,1c-0.4,0-0.8,0.3-0.8,0.8
	s0.3,0.8,0.8,0.8c0.6,0,1,0.4,1,1S16.6,18.5,16,18.5z"/>
<path fill="#7A7C7F" d="M23.7,25.4c-0.3,0-0.6-0.1-0.8-0.3c-0.4-0.4-0.3-1,0.1-1.4c2.3-2,3.6-4.9,3.6-8c0-2.8-1.1-5.5-3.1-7.5
	c-0.4-0.4-0.4-1,0-1.4s1-0.4,1.4,0c2.4,2.4,3.7,5.5,3.7,8.9c0,3.6-1.6,7.1-4.3,9.5C24.2,25.4,24,25.4,23.7,25.4z"/>
<path fill="#7A7C7F" d="M20.1,21.8c-0.3,0-0.6-0.1-0.8-0.4C19,21,19.1,20.4,19.5,20c1.3-1.1,2.1-2.6,2.1-4.3c0-1.5-0.6-2.9-1.7-4
	c-0.4-0.4-0.4-1,0-1.4c0.4-0.4,1-0.4,1.4,0c1.5,1.4,2.3,3.4,2.3,5.4c0,2.3-1,4.4-2.8,5.9C20.6,21.7,20.3,21.8,20.1,21.8z"/>
<path fill="#7A7C7F" d="M16,18.5c-0.6,0-1-0.4-1-1s0.4-1,1-1c0.4,0,0.8-0.3,0.8-0.8S16.4,15,16,15c-0.6,0-1-0.4-1-1s0.4-1,1-1
	c1.5,0,2.8,1.2,2.8,2.8S17.5,18.5,16,18.5z"/>
</svg>
