<svg xmlns="http://www.w3.org/2000/svg" viewBox="0 0 63.82 59.73"><defs><style>.a{fill:#fff;}</style></defs><title>eclipse</title><path class="a" d="M78,72.74a26.54,26.54,0,0,1-5.86,8.54,25.46,25.46,0,0,1-14.49,7.51,28.88,28.88,0,0,1-4.29.32A25.46,25.46,0,0,1,34.5,81.28a26.48,26.48,0,0,1-5.81-8.53H78m2.83-2H25.87a27.71,27.71,0,0,0,7.22,11.95,27.6,27.6,0,0,0,20.25,8.41,30.73,30.73,0,0,0,4.59-.34,27.3,27.3,0,0,0,15.61-8.07,27.7,27.7,0,0,0,7.27-11.95h0Z" transform="translate(-18.09 -32.63)"/><path class="a" d="M81.53,57.45a29.76,29.76,0,0,1,.37,3.45H24.77a29.76,29.76,0,0,1,.37-3.45H81.53Z" transform="translate(-18.09 -32.63)"/><path class="a" d="M81.91,64.1a29.61,29.61,0,0,1-.38,3.45H25.15a29.86,29.86,0,0,1-.37-3.45H81.91Z" transform="translate(-18.09 -32.63)"/><path class="a" d="M53.34,35.89a29,29,0,0,1,4.34.32,25.52,25.52,0,0,1,14.45,7.45A26.75,26.75,0,0,1,78,52.25H28.69a26.72,26.72,0,0,1,5.81-8.59,25.56,25.56,0,0,1,18.84-7.78m0-2A28.72,28.72,0,0,0,25.87,54.25H80.81a27.93,27.93,0,0,0-7.27-12,27.36,27.36,0,0,0-15.56-8,30.85,30.85,0,0,0-4.64-.35h0Z" transform="translate(-18.09 -32.63)"/><path class="a" d="M38.33,89.69a28.84,28.84,0,0,1,0-54.38A30.88,30.88,0,0,0,38.33,89.69Z" transform="translate(-18.09 -32.63)"/><path class="a" d="M26.84,44.36a31.41,31.41,0,0,0,0,36.28,27.74,27.74,0,0,1,0-36.28M48.05,32.63a29.87,29.87,0,1,0,0,59.73l1.11,0a30.11,30.11,0,0,1,0-59.68l-1.1,0h0Z" transform="translate(-18.09 -32.63)"/></svg>