<?xml version="1.0" encoding="utf-8"?>
<!-- Generator: Adobe Illustrator 19.1.0, SVG Export Plug-In . SVG Version: 6.00 Build 0)  -->
<svg version="1.1" xmlns="http://www.w3.org/2000/svg" xmlns:xlink="http://www.w3.org/1999/xlink" x="0px" y="0px"
	 width="24.1px" height="19px" viewBox="-94.1 61.2 24.1 19" style="enable-background:new -94.1 61.2 24.1 19;"
	 xml:space="preserve">
<g>
	<path fill="#fff" d="M-78.7,61.2c-2.9,0-5.5,1.1-7.1,2.9c0.2,0,0.3,0,0.5,0c2.6,0,5,0.8,6.7,2.2c1.8,1.4,2.9,3.4,2.9,5.6c0,1.1-0.3,2.2-0.8,3.2
		c0.8,1.1,2.5,2,5,1.2c-1.3-0.6-2-0.7-2-2.5l0,0c2.2-1.3,3.6-3.3,3.6-5.6C-69.9,64.3-73.9,61.2-78.7,61.2z"/>
	<path fill="#fff" d="M-85.3,64.9c4.8,0,8.8,3.1,8.8,6.9s-3.9,6.9-8.8,6.9c-0.7,0-1.4-0.1-2.1-0.2c-0.7,1.2-2.5,2.3-5.1,1.3c1.3-0.6,2-0.7,2-2.5
		l0,0c-2.2-1.3-3.6-3.3-3.6-5.6C-94.1,68-90.1,64.9-85.3,64.9z"/>
</g>
</svg>
