<?xml version="1.0" encoding="utf-8"?>
<!-- Generator: Adobe Illustrator 18.1.1, SVG Export Plug-In . SVG Version: 6.00 Build 0)  -->
<svg version="1.1" id="Layer_1" xmlns="http://www.w3.org/2000/svg" xmlns:xlink="http://www.w3.org/1999/xlink" x="0px" y="0px"
	 viewBox="0 0 32 32" enable-background="new 0 0 32 32" xml:space="preserve">
<path fill="#7A7C7F" d="M16,28.6C9.1,28.6,3.4,22.9,3.4,16S9.1,3.4,16,3.4S28.6,9.1,28.6,16S22.9,28.6,16,28.6z M16,5.4
	C10.2,5.4,5.4,10.2,5.4,16S10.2,26.6,16,26.6S26.6,21.8,26.6,16S21.8,5.4,16,5.4z"/>
<path fill="#7A7C7F" d="M16,23.4c-4.2,0-7.5-3.4-7.5-7.5c0-0.6,0.4-1,1-1s1,0.4,1,1c0,3.1,2.5,5.5,5.5,5.5s5.5-2.5,5.5-5.5
	c0-0.6,0.4-1,1-1s1,0.4,1,1C23.5,20,20.2,23.4,16,23.4z"/>
</svg>
