<?xml version="1.0" encoding="utf-8"?>
<!-- Generator: Adobe Illustrator 18.1.1, SVG Export Plug-In . SVG Version: 6.00 Build 0)  -->
<svg version="1.1" id="Layer_1" xmlns="http://www.w3.org/2000/svg" xmlns:xlink="http://www.w3.org/1999/xlink" x="0px" y="0px"
	 viewBox="0 0 32 32" enable-background="new 0 0 32 32" xml:space="preserve">
<path fill="#FFFFFF" d="M16.9,28.6C10,28.6,4.3,23,4.3,16.1S10,3.5,16.9,3.5s12.6,5.6,12.6,12.6S23.8,28.6,16.9,28.6z M16.9,5.5
	c-5.8,0-10.6,4.7-10.6,10.6s4.7,10.6,10.6,10.6s10.6-4.7,10.6-10.6S22.7,5.5,16.9,5.5z"/>
<path fill="#FFFFFF" d="M16.9,23.5c-4.2,0-7.5-3.4-7.5-7.5c0-0.6,0.4-1,1-1s1,0.4,1,1c0,3.1,2.5,5.5,5.5,5.5s5.5-2.5,5.5-5.5
	c0-0.6,0.4-1,1-1s1,0.4,1,1C24.4,20.1,21,23.5,16.9,23.5z"/>
</svg>
