<svg xmlns="http://www.w3.org/2000/svg" viewBox="0 0 63.9 64.1"><defs><style>.a{fill:#fff;}</style></defs><title>IJ</title><path class="a" d="M80.8,9.1H19a1,1,0,0,0-1,1V72.2a1,1,0,0,0,1,1H80.9a1,1,0,0,0,1-1V10.1A1.18,1.18,0,0,0,80.8,9.1ZM78.9,70.2H21V12.1H78.9V70.2Z" transform="translate(-18 -9.1)"/><rect class="a" x="7.32" y="49.76" width="21.26" height="3.54"/><polygon class="a" points="22.61 15.38 22.61 11.07 10.87 11.07 10.87 15.38 14.16 15.38 14.16 30.25 10.87 30.25 10.87 34.55 22.61 34.55 22.61 30.25 19.32 30.25 19.32 15.38 22.61 15.38"/><path class="a" d="M51.88,44a9.34,9.34,0,0,1-4.61-1,10.82,10.82,0,0,1-3.07-2.48l3.25-3.62a9.3,9.3,0,0,0,2,1.73,4.27,4.27,0,0,0,2.26.62,3,3,0,0,0,2.31-.92,4.34,4.34,0,0,0,.84-3V20.17h5.3V35.53a10.55,10.55,0,0,1-.57,3.66A7.15,7.15,0,0,1,58,41.81a7,7,0,0,1-2.63,1.63,10.35,10.35,0,0,1-3.47.55" transform="translate(-18 -9.1)"/></svg>