<?xml version="1.0" encoding="utf-8"?>
<!-- Generator: Adobe Illustrator 18.1.1, SVG Export Plug-In . SVG Version: 6.00 Build 0)  -->
<svg version="1.1" id="Layer_1" xmlns="http://www.w3.org/2000/svg" xmlns:xlink="http://www.w3.org/1999/xlink" x="0px" y="0px"
	 viewBox="0 0 32 32" enable-background="new 0 0 32 32" xml:space="preserve">
<path fill="#FFFFFF" d="M16.9,31.3h-4.7c-0.1,0-0.3,0-0.4-0.1c-0.3-0.1-7.3-3.4-8.3-15.5c0-0.3,0.1-0.6,0.3-0.8
	c0.2-0.2,0.5-0.3,0.7-0.3h20.2c0.3,0,0.5,0.1,0.7,0.3c0.2,0.2,0.3,0.5,0.3,0.8c-1,12-8,15.3-8.3,15.5C17.2,31.3,17.1,31.3,16.9,31.3
	z M12.4,29.3h4.2c1-0.5,5.8-3.6,6.9-12.6h-18C6.7,25.7,11.4,28.8,12.4,29.3z"/>
<path fill="#FFFFFF" d="M10.9,13.2c-0.2,0-0.4-0.1-0.6-0.2c-1.3-1.1-2.1-2.4-2-3.6c0-0.8,0.4-2,2-3.1c1-0.7,1.9-1.3,2-1.9
	c0.1-0.5-0.2-1.2-0.8-2.1c-0.3-0.5-0.2-1.1,0.3-1.4c0.5-0.3,1.1-0.2,1.4,0.3c1,1.4,1.3,2.5,1.1,3.6C14,6.1,12.7,7,11.4,7.9
	c-0.7,0.5-1.1,1-1.1,1.5c0,0.6,0.4,1.3,1.3,2c0.4,0.3,0.5,1,0.2,1.4C11.5,13,11.2,13.2,10.9,13.2z"/>
<path fill="#FFFFFF" d="M16.9,12.2c-0.2,0-0.4-0.1-0.6-0.2c-0.9-0.7-1.4-1.7-1.4-2.6c0-0.6,0.3-1.5,1.4-2.2c0.5-0.3,1.1-0.7,1.1-1
	c0-0.1,0-0.4-0.4-1c-0.3-0.5-0.2-1.1,0.3-1.4c0.5-0.3,1.1-0.2,1.4,0.3c0.7,1,0.9,1.8,0.8,2.5c-0.2,1.1-1.1,1.7-1.9,2.3
	c-0.2,0.1-0.5,0.4-0.5,0.7c0,0.3,0.2,0.6,0.6,0.9c0.4,0.3,0.5,1,0.2,1.4C17.5,12.1,17.2,12.2,16.9,12.2z"/>
<path fill="#FFFFFF" d="M21.4,27c-0.5,0-0.9-0.3-1-0.8c-0.1-0.5,0.2-1.1,0.8-1.2c2.5-0.5,7.2-2.9,7.4-5.9c0-0.8-0.1-1.4-0.6-1.8
	c-0.9-0.8-2.8-0.7-3.4-0.6c-0.5,0.1-1.1-0.3-1.1-0.8c-0.1-0.5,0.3-1.1,0.8-1.1c0.3-0.1,3.3-0.5,5.1,1.1c0.6,0.6,1.3,1.6,1.2,3.4
	c-0.3,4.5-6.3,7.2-9,7.7C21.5,27,21.4,27,21.4,27z"/>
</svg>
