<?xml version="1.0" encoding="utf-8"?>
<!-- Generator: Adobe Illustrator 18.1.1, SVG Export Plug-In . SVG Version: 6.00 Build 0)  -->
<svg version="1.1" id="Layer_1" xmlns="http://www.w3.org/2000/svg" xmlns:xlink="http://www.w3.org/1999/xlink" x="0px" y="0px"
	 viewBox="0 0 32 32" enable-background="new 0 0 32 32" xml:space="preserve">
<path fill="#FFFFFF" d="M16.2,26c-0.3,0-0.6-0.1-0.8-0.4c-3.3-4-10.5-2.9-10.6-2.9c-0.3,0-0.6,0-0.8-0.2c-0.2-0.2-0.4-0.5-0.3-0.8
	L3.8,6.6c0-0.5,0.4-0.9,0.8-1C4.9,5.6,13,4.4,17,9.3c0.4,0.4,0.3,1.1-0.1,1.4c-0.4,0.4-1.1,0.3-1.4-0.1c-2.6-3.2-7.8-3.1-9.8-3
	L5.7,20.6c2.4-0.2,8.1-0.1,11.3,3.7c0.4,0.4,0.3,1.1-0.1,1.4C16.6,25.9,16.4,26,16.2,26z"/>
<path fill="#FFFFFF" d="M16.3,26.1c-0.2,0-0.5-0.1-0.6-0.2c-0.4-0.4-0.5-1-0.1-1.4c3.2-3.8,8.9-3.9,11.3-3.7l0.1-13.1
	c-2-0.2-7.1-0.2-9.7,3c-0.4,0.4-1,0.5-1.4,0.1c-0.4-0.4-0.5-1-0.1-1.4C19.7,4.5,27.7,5.8,28,5.8c0.5,0.1,0.8,0.5,0.8,1l-0.1,15.1
	c0,0.3-0.1,0.6-0.4,0.8c-0.2,0.2-0.5,0.3-0.8,0.2c-0.1,0-7.3-1.1-10.6,2.9C16.8,26,16.6,26.1,16.3,26.1z"/>
<path fill="#FFFFFF" d="M16.3,26c-0.6,0-1-0.4-1-1V9.9c0-0.6,0.4-1,1-1s1,0.4,1,1V25C17.3,25.5,16.8,26,16.3,26z"/>
</svg>
