<?xml version="1.0" encoding="utf-8"?>
<!-- Generator: Adobe Illustrator 18.1.1, SVG Export Plug-In . SVG Version: 6.00 Build 0)  -->
<svg version="1.1" id="Layer_1" xmlns="http://www.w3.org/2000/svg" xmlns:xlink="http://www.w3.org/1999/xlink" x="0px" y="0px"
	 viewBox="0 0 32 32" enable-background="new 0 0 32 32" xml:space="preserve">
<path fill="#7A7C7F" d="M16.3,26.2c-0.3,0-0.6-0.1-0.8-0.4c-3.3-4-10.5-2.9-10.6-2.9c-0.3,0-0.6,0-0.8-0.2c-0.2-0.2-0.4-0.5-0.3-0.8
	L3.9,6.8c0-0.5,0.4-0.9,0.8-1c0.3-0.1,8.4-1.3,12.4,3.6c0.4,0.4,0.3,1.1-0.1,1.4c-0.4,0.4-1.1,0.3-1.4-0.1c-2.6-3.2-7.8-3.1-9.8-3
	L5.8,20.8c2.4-0.2,8.1-0.1,11.3,3.7c0.4,0.4,0.3,1.1-0.1,1.4C16.8,26.1,16.6,26.2,16.3,26.2z"/>
<path fill="#7A7C7F" d="M16.4,26.3c-0.2,0-0.5-0.1-0.6-0.2c-0.4-0.4-0.5-1-0.1-1.4c3.2-3.8,8.9-3.9,11.3-3.7L27,7.9
	c-2-0.2-7.1-0.2-9.7,3c-0.4,0.4-1,0.5-1.4,0.1c-0.4-0.4-0.5-1-0.1-1.4C19.8,4.7,27.9,6,28.2,6c0.5,0.1,0.8,0.5,0.8,1L29,22.1
	c0,0.3-0.1,0.6-0.4,0.8c-0.2,0.2-0.5,0.3-0.8,0.2c-0.1,0-7.3-1.1-10.6,2.9C17,26.2,16.7,26.3,16.4,26.3z"/>
<path fill="#7A7C7F" d="M16.4,26.2c-0.6,0-1-0.4-1-1V10.1c0-0.6,0.4-1,1-1s1,0.4,1,1v15.1C17.4,25.7,17,26.2,16.4,26.2z"/>
</svg>
