<?xml version="1.0" encoding="utf-8"?>
<!-- Generator: Adobe Illustrator 18.1.1, SVG Export Plug-In . SVG Version: 6.00 Build 0)  -->
<svg version="1.1" id="Layer_1" xmlns="http://www.w3.org/2000/svg" xmlns:xlink="http://www.w3.org/1999/xlink" x="0px" y="0px"
	 viewBox="0 0 32 32" enable-background="new 0 0 32 32" xml:space="preserve">
<path fill="#7A7C7F" d="M16,29.3c-0.2,0-0.3,0-0.5-0.1c-1-0.5-9.3-4.9-9.3-10.2l-1-10.7c0-0.5,0.3-0.9,0.8-1.1l4-1l5.5-3.3
	c0.3-0.2,0.7-0.2,1,0l5.6,3.3l3.9,1c0.5,0.1,0.8,0.6,0.8,1.1l-1,10.8c0,5.2-8.3,9.6-9.3,10.1C16.3,29.2,16.2,29.3,16,29.3z M7.3,8.9
	l0.9,9.9c0,3.3,5.2,6.9,7.8,8.3c2.5-1.4,7.8-5,7.8-8.2l0.9-10l-3.2-0.8c-0.1,0-0.2-0.1-0.3-0.1L16,4.9L10.9,8
	c-0.1,0.1-0.2,0.1-0.3,0.1L7.3,8.9z"/>
<path fill="none" stroke="#7A7C7F" stroke-width="2" stroke-linecap="round" stroke-linejoin="round" stroke-miterlimit="10" d="
	M16,3.7"/>
<path fill="#7A7C7F" d="M16,29c-0.6,0-1-0.4-1-1V4c0-0.6,0.4-1,1-1s1,0.4,1,1v24C17,28.6,16.6,29,16,29z"/>
<path fill="none" stroke="#7A7C7F" stroke-width="2" stroke-linecap="round" stroke-linejoin="round" stroke-miterlimit="10" d="
	M24.7,12.3"/>
<path fill="none" stroke="#7A7C7F" stroke-width="2" stroke-linecap="round" stroke-linejoin="round" stroke-miterlimit="10" d="
	M7.2,12.3"/>
</svg>
