<?xml version="1.0" encoding="utf-8"?>
<!-- Generator: Adobe Illustrator 18.1.1, SVG Export Plug-In . SVG Version: 6.00 Build 0)  -->
<svg version="1.1" id="Layer_1" xmlns="http://www.w3.org/2000/svg" xmlns:xlink="http://www.w3.org/1999/xlink" x="0px" y="0px"
	 viewBox="0 0 32 32" enable-background="new 0 0 32 32" xml:space="preserve">
<path fill="#FFFFFF" d="M16,29.9c-0.2,0-0.3,0-0.5-0.1c-1-0.5-9.3-4.9-9.3-10.2l-1-10.7C5.2,8.4,5.5,8,6,7.8l4-1l5.5-3.3
	c0.3-0.2,0.7-0.2,1,0L22,6.9l3.9,1c0.5,0.1,0.8,0.6,0.8,1.1l-1,10.8c0,5.2-8.3,9.6-9.3,10.1C16.3,29.9,16.1,29.9,16,29.9z M7.3,9.6
	l0.9,9.9c0,3.3,5.2,6.9,7.8,8.3c2.5-1.4,7.8-5,7.8-8.2l0.9-10l-3.2-0.8c-0.1,0-0.2-0.1-0.3-0.1L16,5.6l-5.1,3.1
	c-0.1,0.1-0.2,0.1-0.3,0.1L7.3,9.6z"/>
<path fill="none" stroke="#7A7C7F" stroke-width="2" stroke-linecap="round" stroke-linejoin="round" stroke-miterlimit="10" d="
	M15.9,4.4"/>
<path fill="#FFFFFF" d="M16,29.7c-0.6,0-1-0.4-1-1v-24c0-0.6,0.4-1,1-1s1,0.4,1,1v24C17,29.2,16.5,29.7,16,29.7z"/>
<path fill="none" stroke="#7A7C7F" stroke-width="2" stroke-linecap="round" stroke-linejoin="round" stroke-miterlimit="10" d="
	M24.7,13"/>
<path fill="none" stroke="#7A7C7F" stroke-width="2" stroke-linecap="round" stroke-linejoin="round" stroke-miterlimit="10" d="
	M7.2,13"/>
</svg>
