<svg xmlns="http://www.w3.org/2000/svg" viewBox="0 0 55.63 55.63">
    <path fill="#fff"
          d="M77.82,55.29a4.32,4.32,0,0,1-3.11,4.35l-5.75,2,1.87,5.58a5,5,0,0,1,.23,1.57,4.84,4.84,0,0,1-9.43,1.54L59.8,64.79,49.43,68.33l1.84,5.48a5,5,0,0,1,.27,1.57,4.84,4.84,0,0,1-9.43,1.54l-1.84-5.45-5.12,1.77a5.68,5.68,0,0,1-1.67.3,4.61,4.61,0,0,1-4.75-4.71A4.89,4.89,0,0,1,32,64.22l5.22-1.77L33.75,52l-5.22,1.81a5.38,5.38,0,0,1-1.6.27,4.65,4.65,0,0,1-4.75-4.71,4.89,4.89,0,0,1,3.31-4.61L30.74,43,29,37.64a5,5,0,0,1-.27-1.57,4.84,4.84,0,0,1,9.43-1.54l1.81,5.35L50.3,36.37,48.5,31a5,5,0,0,1-.27-1.57,4.86,4.86,0,0,1,9.46-1.54l1.77,5.38,5.42-1.84a5.15,5.15,0,0,1,1.44-.2,4.7,4.7,0,0,1,4.85,4.61,4.94,4.94,0,0,1-3.48,4.45l-5.25,1.81,3.51,10.56,5.48-1.87A5,5,0,0,1,73,50.55,4.69,4.69,0,0,1,77.82,55.29Zm-21,.5L53.28,45.26,42.91,48.84l3.51,10.46Z"
          transform="translate(-22.18 -24.6)"/>
</svg>