<svg xmlns="http://www.w3.org/2000/svg" viewBox="0 0 1275 703.27"><defs><style>.a,.b,.c,.g,.h{fill:#586be0;}.a{opacity:0.05;}.b,.f{opacity:0.1;}.c,.e{opacity:0.2;}.d,.e{fill:#fff;}.d{opacity:0.15;}.f{fill:#7a8ffc;}.g{opacity:0.4;}.h{opacity:0.3;}</style></defs><title>Untitled-1</title><polygon class="a" points="863.17 592.18 1275 181.09 452.08 181.09 863.17 592.18"/><polygon class="b" points="52.39 360.52 52.39 253.03 160.6 253.03 106.68 306.95 160.43 360.7 52.39 360.52"/><polygon class="c" points="522.29 505.28 522.29 397.45 630.84 397.45 576.75 451.54 630.66 505.46 522.29 505.28"/><polygon class="b" points="1070.27 384.22 1070.27 181.09 865.78 181.09 967.68 283 866.12 384.56 1070.27 384.22"/><polygon class="b" points="667.53 541.9 667.53 505.46 630.84 505.46 649.12 523.74 630.9 541.96 667.53 541.9"/><polygon class="b" points="522.29 503.77 522.29 253.04 269.87 253.04 395.66 378.82 270.3 504.19 522.29 503.77"/><polygon class="c" points="396.72 378.91 15.28 0 775.63 0 396.72 378.91"/><polygon class="b" points="522.05 252.83 267 0 775.63 0 522.05 252.83"/><polygon class="b" points="863.62 592.5 765.3 494.82 961.18 494.82 863.62 592.5"/><polygon class="d" points="396.5 378.61 269.96 252.91 522.2 252.91 396.5 378.61"/><polygon class="e" points="396.77 629.96 270.15 504.19 522.54 504.19 396.77 629.96"/><polygon class="f" points="215.67 416.02 161.11 361.81 269.87 361.81 215.67 416.02"/><polygon class="f" points="1070.46 384.56 1011.79 326.28 1128.74 326.28 1070.46 384.56"/><polygon class="c" points="269.96 445.62 270.15 504.19 211.58 445.62 269.96 445.62"/><polygon class="b" points="470.02 629.09 470.26 703.27 396.08 629.09 470.02 629.09"/><polygon class="b" points="903.18 592.5 903.32 632.58 863.24 592.5 903.18 592.5"/><polygon class="b" points="1011.65 283.17 1011.79 326.28 968.68 283.17 1011.65 283.17"/><polygon class="c" points="340.46 504.19 340.69 574.72 270.15 504.19 340.46 504.19"/><polygon class="b" points="396.59 252.91 397.01 379.97 269.96 252.91 396.59 252.91"/><polygon class="g" points="106.5 199.66 106.5 306.51 0 199.3 106.5 199.66"/><polygon class="h" points="865.54 108.78 865.78 181.09 793.46 108.78 865.54 108.78"/><polygon class="c" points="215.75 307.6 269.96 253.04 269.96 361.81 215.75 307.6"/><polygon class="c" points="912.01 543.66 961.18 494.82 865.78 494.82 912.01 543.66"/><polygon class="b" points="557.25 288.11 592.57 253.03 522.17 253.03 557.25 288.11"/><polygon class="h" points="557.37 288.23 522.29 252.91 522.29 323.31 557.37 288.23"/></svg>