<?xml version="1.0" encoding="utf-8"?>
<!-- Generator: Adobe Illustrator 18.1.1, SVG Export Plug-In . SVG Version: 6.00 Build 0)  -->
<svg version="1.1" id="Layer_1" xmlns="http://www.w3.org/2000/svg" xmlns:xlink="http://www.w3.org/1999/xlink" x="0px" y="0px"
	 viewBox="0 0 32 32" enable-background="new 0 0 32 32" xml:space="preserve">
<path fill="#7A7C7F" d="M26.5,21.3h-21c-1.1,0-2-0.9-2-2v-11c0-1.1,0.9-2,2-2h21c1.1,0,2,0.9,2,2v11C28.5,20.4,27.6,21.3,26.5,21.3z
	 M26.5,19.3v1V19.3L26.5,19.3L26.5,19.3z M5.5,8.3v11h21l0-11H5.5z"/>
<path fill="#7A7C7F" d="M23.8,26.7H8.2c-0.6,0-1-0.4-1-1s0.4-1,1-1h15.5c0.6,0,1,0.4,1,1S24.3,26.7,23.8,26.7z"/>
<path fill="#7A7C7F" d="M13.3,26.7c-0.6,0-1-0.4-1-1v-5.4c0-0.6,0.4-1,1-1s1,0.4,1,1v5.4C14.3,26.3,13.9,26.7,13.3,26.7z"/>
<path fill="#7A7C7F" d="M19.1,26.7c-0.6,0-1-0.4-1-1v-5.4c0-0.6,0.4-1,1-1s1,0.4,1,1v5.4C20.1,26.3,19.7,26.7,19.1,26.7z"/>
</svg>
