<?xml version="1.0" encoding="utf-8"?>
<!-- Generator: Adobe Illustrator 18.1.1, SVG Export Plug-In . SVG Version: 6.00 Build 0)  -->
<svg version="1.1" id="Layer_1" xmlns="http://www.w3.org/2000/svg" xmlns:xlink="http://www.w3.org/1999/xlink" x="0px" y="0px"
	 viewBox="0 0 32 32" enable-background="new 0 0 32 32" xml:space="preserve">
<path fill="#FFFFFF" d="M26.4,21.1h-21c-1.1,0-2-0.9-2-2v-11c0-1.1,0.9-2,2-2h21c1.1,0,2,0.9,2,2v11C28.4,20.2,27.5,21.1,26.4,21.1z
	 M26.4,19.1v1V19.1L26.4,19.1L26.4,19.1z M5.3,8.1v11h21l0-11H5.3z"/>
<path fill="#FFFFFF" d="M23.6,26.5H8.1c-0.6,0-1-0.4-1-1s0.4-1,1-1h15.5c0.6,0,1,0.4,1,1S24.1,26.5,23.6,26.5z"/>
<path fill="#FFFFFF" d="M13.2,26.5c-0.6,0-1-0.4-1-1v-5.4c0-0.6,0.4-1,1-1s1,0.4,1,1v5.4C14.2,26.1,13.7,26.5,13.2,26.5z"/>
<path fill="#FFFFFF" d="M19,26.5c-0.6,0-1-0.4-1-1v-5.4c0-0.6,0.4-1,1-1s1,0.4,1,1v5.4C20,26.1,19.5,26.5,19,26.5z"/>
</svg>
