<svg xmlns="http://www.w3.org/2000/svg" viewBox="0 0 26 25.67"><defs><style>.a{fill:#fff;}.b{fill:#3b3e43;}.c{fill:none;}</style></defs><title>youtrack</title><path class="a" d="M61,52.68C61,52.62,56.16,48,56.16,48s3.64-3.83,4.61-4.79a4.69,4.69,0,0,0-1-7.41,4.8,4.8,0,0,0-5.21.28,4.7,4.7,0,0,0-.68.61c-0.09.1-2.25,2.06-5,4.51-1.93-2-4.17-4.26-4.59-4.67a4.78,4.78,0,0,0-4.06-1.31c-2.6.39-4.48,2.56-4.08,4.81a6.79,6.79,0,0,0,2.59,3.47c0.47,0.34,2.29,1.73,4.13,3.13L38.11,51a5.64,5.64,0,0,0,1,9.11,5.54,5.54,0,0,0,3.59.67c1.71-.25,16.26-2.69,17-2.81a3,3,0,0,0,2.13-1.44A3,3,0,0,0,61,52.68Z" transform="translate(-36.16 -35.21)"/><path class="b" d="M57.16,55.88h-16v-16h16v16Z" transform="translate(-36.16 -35.21)"/><path class="a" d="M44.85,46.11l-2.7-4.24H44l1.67,2.81,1.7-2.81h1.75l-2.7,4.21v2.79H44.85V46.11Z" transform="translate(-36.16 -35.21)"/><path class="a" d="M51.36,43.29h-2.2V41.87h6v1.42h-2.2v5.58H51.36V43.29Z" transform="translate(-36.16 -35.21)"/><path class="c" d="M50.16,52.88h-7v1h7v-1Z" transform="translate(-36.16 -35.21)"/><path class="a" d="M50.16,52.88h-7v1h7v-1Z" transform="translate(-36.16 -35.21)"/></svg>