<svg id="Layer_1" data-name="Layer 1" xmlns="http://www.w3.org/2000/svg" xmlns:xlink="http://www.w3.org/1999/xlink" viewBox="0 0 103.2776 22.9724">
  <defs>
    <linearGradient id="linear-gradient" x1="-2.4559" y1="19.6476" x2="14.9184" y2="2.2733" gradientUnits="userSpaceOnUse">
      <stop offset="0.1075" stop-color="#c757bc"/>
      <stop offset="0.2138" stop-color="#d0609a"/>
      <stop offset="0.4254" stop-color="#e1725c"/>
      <stop offset="0.6049" stop-color="#ee7e2f"/>
      <stop offset="0.743" stop-color="#f58613"/>
      <stop offset="0.8232" stop-color="#f88909"/>
    </linearGradient>
    <linearGradient id="linear-gradient-2" x1="7.6425" y1="25.7685" x2="16.7952" y2="16.6158" gradientUnits="userSpaceOnUse">
      <stop offset="0.0968" stop-color="#0095d5"/>
      <stop offset="0.3007" stop-color="#238ad9"/>
      <stop offset="0.6211" stop-color="#557bde"/>
      <stop offset="0.8643" stop-color="#7472e2"/>
      <stop offset="1" stop-color="#806ee3"/>
    </linearGradient>
    <linearGradient id="linear-gradient-3" x1="-0.9938" y1="7.6321" x2="7.0062" y2="-0.3679" xlink:href="#linear-gradient-2"/>
  </defs>
  <title>kotlin_small</title>
  <g>
    <g id="_Group_" data-name="&lt;Group&gt;">
      <g>
        <path id="_Compound_Path_" data-name="&lt;Compound Path&gt;" d="M28.6478,0.9289h4.7679v9.4738l8.7926-9.4738h5.7586L39.1433,10.124l9.2261,12.4769H42.6417l-6.7183-9.2259-2.5077,2.6005v6.6254H28.6478V0.9289Z" fill="#231f20"/>
        <path id="_Compound_Path_2" data-name="&lt;Compound Path&gt;" d="M45.8355,14.3964V14.3347a8.71,8.71,0,0,1,9.0095-8.6379,8.6253,8.6253,0,0,1,8.9475,8.576v0.062a8.71,8.71,0,0,1-9.0095,8.6377A8.6253,8.6253,0,0,1,45.8355,14.3964Zm13.3129,0V14.3347a4.409,4.409,0,0,0-4.3654-4.5822,4.2514,4.2514,0,0,0-4.3034,4.52v0.062a4.409,4.409,0,0,0,4.3654,4.582A4.2514,4.2514,0,0,0,59.1483,14.3964Z" fill="#231f20"/>
        <path id="_Compound_Path_3" data-name="&lt;Compound Path&gt;" d="M65.0914,17.895V10.0311H63.11V6.0063h1.9814V1.7647h4.706V6.0063h3.9009v4.0248H69.7975v7.09a1.3634,1.3634,0,0,0,1.517,1.61,4.7832,4.7832,0,0,0,2.322-.5885V21.92a6.9377,6.9377,0,0,1-3.7152.96C67.042,22.88,65.0914,21.7339,65.0914,17.895Z" fill="#231f20"/>
        <path id="_Compound_Path_4" data-name="&lt;Compound Path&gt;" d="M75.0493,0h4.7059V22.6009H75.0493V0Z" fill="#231f20"/>
        <path id="_Compound_Path_5" data-name="&lt;Compound Path&gt;" d="M81.4562,0H86.41V4.18H81.4562V0ZM81.58,6.0063h4.7059V22.6009H81.58V6.0063Z" fill="#231f20"/>
        <path id="_Compound_Path_6" data-name="&lt;Compound Path&gt;" d="M88.0763,6.0063h4.7059v2.353a5.8711,5.8711,0,0,1,4.8607-2.6625c3.5605,0,5.6348,2.353,5.6348,6.1611V22.6009H98.5717v-9.257c0-2.229-1.0528-3.3747-2.8484-3.3747s-2.9412,1.1456-2.9412,3.3747v9.257H88.0762V6.0063Z" fill="#231f20"/>
      </g>
    </g>
    <g>
      <polygon points="10.879 0.918 0 12.359 0 22.586 10.863 11.704 21.668 0.918 10.879 0.918" fill="url(#linear-gradient)"/>
      <polygon id="_Path_" data-name="&lt;Path&gt;" points="0 22.586 10.863 11.704 21.668 22.586 0 22.586" fill="url(#linear-gradient-2)"/>
      <polygon points="0 0.918 10.879 0.918 0 12.359 0 0.918" fill="url(#linear-gradient-3)"/>
    </g>
  </g>
</svg>
